<svg width="62" height="62" viewBox="0 0 62 62" fill="none" xmlns="http://www.w3.org/2000/svg">
<path d="M48.5382 41.9488L48.082 41.2572L40.1224 29.2051L38.371 31.86L35.0202 26.8272L37.6287 22.9049C38.4403 21.6789 39.2559 21.0798 40.1224 21.0798C40.9887 21.0798 41.8045 21.6789 42.6158 22.9049L54.8244 41.2572L55.2852 41.9488H48.5382ZM34.9526 41.9488L24.3113 25.8349L13.67 41.9488H6.5106L21.6684 19.1632C22.5291 17.863 23.3937 17.2304 24.3113 17.2304C25.2288 17.2304 26.0934 17.863 26.9547 19.1645L42.1126 41.9488H34.9526ZM24.3116 41.9488C22.6344 41.9488 21.2701 40.5845 21.2701 38.907C21.2701 37.2301 22.6344 35.8656 24.3116 35.8656C25.9885 35.8656 27.353 37.2301 27.353 38.907C27.353 40.5845 25.9885 41.9488 24.3116 41.9488ZM30.8977 0C13.8335 0 0 13.833 0 30.8977C0 47.962 13.8335 61.7955 30.8977 61.7955C47.962 61.7955 61.7955 47.962 61.7955 30.8977C61.7955 13.833 47.962 0 30.8977 0Z" fill="#FB6E44"/>
</svg>
