<svg width="287" height="33" viewBox="0 0 287 33" fill="none" xmlns="http://www.w3.org/2000/svg">
<path d="M26.6052 2.51706C25.4846 0.82342 24.3595 0 23.1652 0C21.9714 0 20.8463 0.823411 19.7263 2.51578L0 32.1669H9.31759L23.1652 11.1976L37.0133 32.1669H46.3305L26.6052 2.51706Z" fill="#FB6E44"/>
<path d="M23.1661 24.251C20.9834 24.251 19.208 26.0267 19.208 28.2089C19.208 30.3915 20.9834 32.1668 23.1661 32.1668C25.3483 32.1668 27.1242 30.3915 27.1242 28.2089C27.1242 26.0267 25.3483 24.251 23.1661 24.251Z" fill="#FB6E44"/>
<path d="M56.5291 24.9849V0.000732422H48.7949V27.9858C48.7949 28.5922 48.8953 29.1569 49.0928 29.6633C49.2937 30.1791 49.586 30.6301 49.9592 31.0029C50.3337 31.3774 50.7843 31.6693 51.2984 31.8693C51.8043 32.0667 52.369 32.1667 52.9767 32.1667H89.5989V24.9849H56.5291Z" fill="#FB6E44"/>
<path d="M132.868 7.18339V0.000732422H96.2458C95.6394 0.000732422 95.0747 0.100726 94.5683 0.298601C94.053 0.499455 93.6023 0.790951 93.2292 1.16457C92.8551 1.53777 92.5636 1.98885 92.3623 2.5046C92.1649 3.01142 92.0645 3.57567 92.0645 4.18164V27.9862C92.0645 28.5931 92.1649 29.1573 92.3623 29.6637C92.5636 30.1795 92.8551 30.6305 93.2287 31.0033C93.6032 31.3782 94.0534 31.6697 94.5675 31.8701C95.0739 32.0676 95.6381 32.1676 96.2458 32.1676H132.868V24.9849H99.7982V19.3389H128.854V12.1562H99.7982V7.18339H132.868Z" fill="#FB6E44"/>
<path d="M164.943 15.3133L181.292 0.000732422H169.269L158.988 9.68853L148.709 0.000732422H136.685L153.034 15.3133L135.148 32.1667H146.942L158.988 20.8883L171.035 32.1667H182.829L164.943 15.3133Z" fill="#FB6E44"/>
<path d="M185.032 32.1672H192.942V0.000732422H185.032V32.1672Z" fill="#FB6E44"/>
<path d="M213.93 14.9141L236.147 0.000732422H222.803L205.585 11.9218V0.000732422H205.507H197.598V32.1672H205.507H205.585V18.7491L224.272 32.1672H238.629L213.93 14.9141Z" fill="#FB6E44"/>
<path d="M267.275 2.51706C266.154 0.82342 265.029 0 263.835 0C262.641 0 261.515 0.823411 260.395 2.51578L240.67 32.1669H249.987L263.835 11.1976L277.682 32.1669H287L267.275 2.51706Z" fill="#FB6E44"/>
<path d="M263.837 24.251C261.655 24.251 259.879 26.0267 259.879 28.2089C259.879 30.3915 261.655 32.1668 263.837 32.1668C266.02 32.1668 267.795 30.3915 267.795 28.2089C267.795 26.0267 266.02 24.251 263.837 24.251Z" fill="#FB6E44"/>
</svg>
